<svg width="300" height="109" viewBox="0 0 300 109" fill="none" xmlns="http://www.w3.org/2000/svg">
<path d="M174.255 0C182.444 0 189.807 4.99287 192.836 12.6015L195.982 20.5038C199.012 28.1124 206.374 33.1053 214.564 33.1053H280C291.046 33.1053 300 42.0596 300 53.1053V89C300 100.046 291.046 109 280 109H245.679H151.948H20C8.95432 109 0 100.046 0 89V66.8723V53.1053C0 42.0596 8.9543 33.1053 20 33.1053H82.7867C92.2379 33.1053 100.399 26.4894 102.354 17.2427L102.646 15.8625C104.601 6.61586 112.762 0 122.213 0H174.255Z" fill="#ffffff"/>
</svg>
